<svg width="32" height="24" viewBox="0 0 32 24" fill="none" xmlns="http://www.w3.org/2000/svg">
<path d="M15.9252 23.5774C14.767 22.8116 13.5123 22.2171 12.1611 21.7939C10.8098 21.3708 9.41035 21.1592 7.9626 21.1592C6.94918 21.1592 5.95385 21.27 4.97663 21.4917C3.9994 21.7133 3.0644 22.0257 2.17162 22.4287C1.66491 22.6504 1.17629 22.6403 0.705776 22.3985C0.235259 22.1567 0 21.804 0 21.3405V6.77094C0 6.54927 0.0663551 6.33768 0.199065 6.13616C0.331775 5.93464 0.53084 5.78351 0.79626 5.68275C1.9062 5.19911 3.0644 4.83638 4.27085 4.59456C5.4773 4.35274 6.70789 4.23183 7.9626 4.23183C9.36209 4.23183 10.7314 4.38297 12.0706 4.68525C13.4097 4.98752 14.6946 5.44093 15.9252 6.04548V21.3405C17.1558 20.6755 18.4467 20.1768 19.7979 19.8443C21.1492 19.5118 22.5124 19.3455 23.8878 19.3455C24.7565 19.3455 25.7035 19.4161 26.729 19.5571C27.7545 19.6982 28.7378 19.9904 29.6788 20.4337V5.16888C29.9201 5.24949 30.1553 5.3301 30.3846 5.4107C30.6138 5.49131 30.837 5.58199 31.0541 5.68275C31.2954 5.80366 31.4885 5.95983 31.6332 6.15127C31.778 6.34271 31.8504 6.54927 31.8504 6.77094V21.3405C31.8504 21.804 31.6152 22.1567 31.1446 22.3985C30.6741 22.6403 30.1855 22.6504 29.6788 22.4287C28.786 22.0257 27.851 21.7133 26.8738 21.4917C25.8966 21.27 24.9012 21.1592 23.8878 21.1592C22.4401 21.1592 21.0406 21.3708 19.6893 21.7939C18.3381 22.2171 17.0834 22.8116 15.9252 23.5774ZM18.0968 18.5294V7.85912L27.5072 0V11.698L18.0968 18.5294ZM13.7536 20.4337V7.16389C12.9332 6.78101 11.9801 6.49889 10.8943 6.31753C9.80848 6.13616 8.83125 6.04548 7.9626 6.04548C6.82853 6.04548 5.77289 6.14624 4.79566 6.34775C3.81843 6.54927 2.94375 6.81124 2.17162 7.13366V20.4337C3.01614 20.0911 3.92701 19.8241 4.90424 19.6327C5.88147 19.4412 6.91299 19.3455 7.9988 19.3455C9.06048 19.3455 10.0739 19.4412 11.0391 19.6327C12.0042 19.8241 12.9091 20.0911 13.7536 20.4337Z" fill="#F98A07"/>
</svg>
