<svg width="81" height="81" viewBox="0 0 81 81" fill="none" xmlns="http://www.w3.org/2000/svg">
<path d="M40.5 81C34.65 76.6674 28.2563 73.3395 21.3188 71.0163C14.3813 68.693 7.275 67.5314 0 67.5314V27.1256C7.05 27.1256 14.0438 28.4756 20.9813 31.1756C27.9188 33.8756 34.425 37.643 40.5 42.4779C46.575 37.643 53.0812 33.8756 60.0187 31.1756C66.9563 28.4756 73.95 27.1256 81 27.1256V67.5314C73.725 67.5314 66.6188 68.693 59.6813 71.0163C52.7438 73.3395 46.35 76.6674 40.5 81ZM40.5 73.7477C45.825 70.5454 51.3187 67.9866 56.9813 66.0715C62.6437 64.1564 68.4 62.9477 74.25 62.4454V33.2477C69.15 33.9384 63.7688 35.6494 58.1063 38.3808C52.4437 41.1122 46.575 44.8954 40.5 49.7302C33.9 44.6442 27.9 40.7826 22.5 38.1454C17.1 35.5081 11.85 33.8756 6.75 33.2477V62.4454C12.6 62.9477 18.3562 64.1564 24.0187 66.0715C29.6812 67.9866 35.175 70.5454 40.5 73.7477ZM40.8375 29.0093C35.9625 29.0093 31.8563 27.6122 28.5188 24.818C25.1813 22.0238 23.5125 18.586 23.5125 14.5047C23.5125 10.4233 25.1813 6.98547 28.5188 4.19128C31.8563 1.39709 35.9625 0 40.8375 0C45.7125 0 49.8188 1.39709 53.1563 4.19128C56.4938 6.98547 58.1625 10.4233 58.1625 14.5047C58.1625 18.586 56.4938 22.0238 53.1563 24.818C49.8188 27.6122 45.7125 29.0093 40.8375 29.0093ZM40.8375 23.3581C43.7625 23.3581 46.2563 22.4948 48.3188 20.768C50.3813 19.0413 51.4125 16.9535 51.4125 14.5047C51.4125 12.0558 50.3813 9.96802 48.3188 8.24128C46.2563 6.51454 43.7625 5.65116 40.8375 5.65116C37.9125 5.65116 35.4188 6.51454 33.3563 8.24128C31.2938 9.96802 30.2625 12.0558 30.2625 14.5047C30.2625 16.9535 31.2938 19.0413 33.3563 20.768C35.4188 22.4948 37.9125 23.3581 40.8375 23.3581Z" fill="#399BF5"/>
</svg>
