<svg width="59" height="61" viewBox="0 0 59 61" fill="none" xmlns="http://www.w3.org/2000/svg">
<path d="M15.7625 9.06189H19.825V16.4456H26.975V20.641H19.825V28.0247H15.7625V20.641H8.6125V16.4456H15.7625V9.06189ZM33.2313 11.9986H49.5625V16.11H33.2313V11.9986ZM33.2313 20.9766H49.5625V25.1719H33.2313V20.9766ZM36.2375 34.6533L41.1938 39.7716L46.15 34.6533L49.075 37.674L44.1188 42.7923L49.075 47.9105L46.15 50.9312L41.1938 45.8129L36.2375 50.9312L33.3125 47.9105L38.2687 42.7923L33.3125 37.674L36.2375 34.6533ZM9.83125 40.6946H17.7938H25.7563V44.8899H9.83125V40.6946ZM4.875 -6.19888e-06C3.575 -6.19888e-06 2.4375 0.503431 1.4625 1.51031C0.4875 2.51718 0 3.69188 0 5.03438V55.3782C0 56.7207 0.4875 57.8954 1.4625 58.9023C2.4375 59.9092 3.575 60.4126 4.875 60.4126H53.625C54.925 60.4126 56.0625 59.9092 57.0375 58.9023C58.0125 57.8954 58.5 56.7207 58.5 55.3782V5.03438C58.5 3.69188 58.0125 2.51718 57.0375 1.51031C56.0625 0.503431 54.925 -6.19888e-06 53.625 -6.19888e-06H4.875ZM4.875 5.03438H53.625V55.3782H4.875V5.03438Z" fill="#1480E4"/>
</svg>
